<?xml version="1.0" encoding="UTF-8"?>
<!DOCTYPE svg PUBLIC "-//W3C//DTD SVG 1.1//EN" "http://www.w3.org/Graphics/SVG/1.1/DTD/svg11.dtd">
<svg version="1.2" width="63.5mm" height="11.38mm" viewBox="0 0 6350 1138" preserveAspectRatio="xMidYMid" fill-rule="evenodd" stroke-width="28.222" stroke-linejoin="round" xmlns="http://www.w3.org/2000/svg" xmlns:ooo="http://xml.openoffice.org/svg/export" xmlns:xlink="http://www.w3.org/1999/xlink" xmlns:presentation="http://sun.com/xmlns/staroffice/presentation" xmlns:smil="http://www.w3.org/2001/SMIL20/" xmlns:anim="urn:oasis:names:tc:opendocument:xmlns:animation:1.0" xml:space="preserve">
 <defs class="ClipPathGroup">
  <clipPath id="presentation_clip_path" clipPathUnits="userSpaceOnUse">
   <rect x="0" y="0" width="6350" height="1138"/>
  </clipPath>
  <clipPath id="presentation_clip_path_shrink" clipPathUnits="userSpaceOnUse">
   <rect x="6" y="1" width="6338" height="1136"/>
  </clipPath>
 </defs>
 <defs class="TextShapeIndex">
  <g ooo:slide="id1" ooo:id-list="id3"/>
 </defs>
 <defs class="EmbeddedBulletChars">
  <g id="bullet-char-template-57356" transform="scale(0.00048828125,-0.00048828125)">
   <path d="M 580,1141 L 1163,571 580,0 -4,571 580,1141 Z"/>
  </g>
  <g id="bullet-char-template-57354" transform="scale(0.00048828125,-0.00048828125)">
   <path d="M 8,1128 L 1137,1128 1137,0 8,0 8,1128 Z"/>
  </g>
  <g id="bullet-char-template-10146" transform="scale(0.00048828125,-0.00048828125)">
   <path d="M 174,0 L 602,739 174,1481 1456,739 174,0 Z M 1358,739 L 309,1346 659,739 1358,739 Z"/>
  </g>
  <g id="bullet-char-template-10132" transform="scale(0.00048828125,-0.00048828125)">
   <path d="M 2015,739 L 1276,0 717,0 1260,543 174,543 174,936 1260,936 717,1481 1274,1481 2015,739 Z"/>
  </g>
  <g id="bullet-char-template-10007" transform="scale(0.00048828125,-0.00048828125)">
   <path d="M 0,-2 C -7,14 -16,27 -25,37 L 356,567 C 262,823 215,952 215,954 215,979 228,992 255,992 264,992 276,990 289,987 310,991 331,999 354,1012 L 381,999 492,748 772,1049 836,1024 860,1049 C 881,1039 901,1025 922,1006 886,937 835,863 770,784 769,783 710,716 594,584 L 774,223 C 774,196 753,168 711,139 L 727,119 C 717,90 699,76 672,76 641,76 570,178 457,381 L 164,-76 C 142,-110 111,-127 72,-127 30,-127 9,-110 8,-76 1,-67 -2,-52 -2,-32 -2,-23 -1,-13 0,-2 Z"/>
  </g>
  <g id="bullet-char-template-10004" transform="scale(0.00048828125,-0.00048828125)">
   <path d="M 285,-33 C 182,-33 111,30 74,156 52,228 41,333 41,471 41,549 55,616 82,672 116,743 169,778 240,778 293,778 328,747 346,684 L 369,508 C 377,444 397,411 428,410 L 1163,1116 C 1174,1127 1196,1133 1229,1133 1271,1133 1292,1118 1292,1087 L 1292,965 C 1292,929 1282,901 1262,881 L 442,47 C 390,-6 338,-33 285,-33 Z"/>
  </g>
  <g id="bullet-char-template-9679" transform="scale(0.00048828125,-0.00048828125)">
   <path d="M 813,0 C 632,0 489,54 383,161 276,268 223,411 223,592 223,773 276,916 383,1023 489,1130 632,1184 813,1184 992,1184 1136,1130 1245,1023 1353,916 1407,772 1407,592 1407,412 1353,268 1245,161 1136,54 992,0 813,0 Z"/>
  </g>
  <g id="bullet-char-template-8226" transform="scale(0.00048828125,-0.00048828125)">
   <path d="M 346,457 C 273,457 209,483 155,535 101,586 74,649 74,723 74,796 101,859 155,911 209,963 273,989 346,989 419,989 480,963 531,910 582,859 608,796 608,723 608,648 583,586 532,535 482,483 420,457 346,457 Z"/>
  </g>
  <g id="bullet-char-template-8211" transform="scale(0.00048828125,-0.00048828125)">
   <path d="M -4,459 L 1135,459 1135,606 -4,606 -4,459 Z"/>
  </g>
  <g id="bullet-char-template-61548" transform="scale(0.00048828125,-0.00048828125)">
   <path d="M 173,740 C 173,903 231,1043 346,1159 462,1274 601,1332 765,1332 928,1332 1067,1274 1183,1159 1299,1043 1357,903 1357,740 1357,577 1299,437 1183,322 1067,206 928,148 765,148 601,148 462,206 346,322 231,437 173,577 173,740 Z"/>
  </g>
 </defs>
 <defs class="TextEmbeddedBitmaps"/>
 <g>
  <g id="id2" class="Master_Slide">
   <g id="bg-id2" class="Background"/>
   <g id="bo-id2" class="BackgroundObjects"/>
  </g>
 </g>
 <g class="SlideGroup">
  <g>
   <g id="container-id1">
    <g id="id1" class="Slide" clip-path="url(#presentation_clip_path)">
     <g class="Page">
      <g class="Graphic">
       <g id="id3">
        <rect class="BoundingBox" stroke="none" fill="none" x="0" y="0" width="6350" height="1138"/>
        <path fill="rgb(255,106,92)" stroke="none" d="M 812,415 C 833,450 844,489 847,529 1042,579 1175,687 1172,806 1172,981 913,1121 593,1121 272,1121 13,981 13,806 13,682 148,574 341,524 341,571 352,619 376,661 L 558,976 C 571,1000 582,1026 587,1052 L 595,1039 C 640,962 640,865 595,788 L 450,537 C 405,457 405,362 450,286 L 458,272 C 463,299 474,325 487,349 L 571,497 704,727 C 717,751 727,777 733,804 L 741,791 C 786,714 786,616 741,539 L 595,288 C 550,212 550,114 595,37 L 603,24 C 608,50 619,77 632,100 L 812,415 812,415 Z M 1415,955 C 1402,992 1397,1021 1394,1066 1455,1095 1529,1108 1616,1108 1802,1108 1897,1021 1897,896 1897,791 1839,727 1701,669 L 1643,645 C 1566,613 1524,579 1524,524 1524,465 1566,428 1661,428 1712,428 1783,439 1841,460 1852,428 1860,394 1862,352 1802,331 1735,320 1664,320 1489,320 1402,399 1402,524 1402,637 1471,695 1574,740 L 1630,762 C 1730,806 1772,836 1772,899 1772,965 1714,997 1614,997 1556,997 1476,984 1415,955 L 1415,955 Z M 2275,513 C 2354,516 2421,524 2481,545 L 2481,1089 2370,1089 2365,1023 C 2333,1071 2288,1103 2212,1103 2069,1103 1971,997 1971,814 1971,624 2074,513 2275,513 L 2275,513 Z M 2362,624 L 2362,965 C 2331,989 2294,1005 2243,1007 2137,1007 2093,928 2093,817 2093,695 2151,619 2275,619 2309,619 2339,619 2362,624 L 2362,624 Z M 3095,725 L 3095,1089 2976,1089 2976,746 C 2976,658 2947,619 2828,619 2799,619 2767,621 2733,627 L 2733,1089 2614,1089 2614,545 C 2690,526 2775,513 2831,513 3032,516 3095,592 3095,725 L 3095,725 Z M 3521,986 C 3497,997 3463,1002 3428,1002 3370,1002 3336,973 3336,904 L 3336,637 3516,637 C 3521,606 3524,571 3526,534 L 3336,534 3336,328 C 3299,328 3254,333 3217,346 L 3217,920 C 3217,1052 3291,1105 3407,1105 3439,1105 3476,1100 3508,1087 3513,1055 3518,1018 3521,986 L 3521,986 Z M 4071,1089 L 3960,1089 3955,1023 C 3923,1071 3878,1103 3801,1103 3659,1103 3561,997 3561,814 3561,624 3664,513 3865,513 3944,516 4008,524 4071,545 L 4071,1089 4071,1089 Z M 3950,624 L 3950,965 C 3921,989 3881,1005 3831,1007 3725,1007 3680,928 3680,817 3680,695 3738,619 3862,619 3897,619 3926,619 3950,624 L 3950,624 Z M 4685,725 L 4685,1089 4563,1089 4563,746 C 4563,658 4534,619 4415,619 4386,619 4354,621 4320,627 L 4320,1089 4201,1089 4201,545 C 4278,526 4362,513 4418,513 4619,516 4685,592 4685,725 L 4685,725 Z M 5291,1089 L 5291,328 C 5251,328 5209,331 5172,341 L 5172,521 C 5143,516 5114,513 5082,513 4881,513 4778,624 4778,814 4778,997 4876,1103 5018,1103 5098,1103 5143,1071 5174,1021 L 5180,1089 5291,1089 5291,1089 Z M 5172,965 L 5172,629 C 5140,624 5108,619 5077,619 4958,619 4902,693 4902,817 4902,928 4947,1007 5053,1007 5100,1005 5140,989 5172,965 L 5172,965 Z M 5510,857 L 5894,857 C 5899,825 5899,799 5899,762 5899,624 5825,513 5653,513 5463,513 5389,643 5389,804 5389,989 5484,1100 5685,1100 5751,1100 5807,1089 5862,1066 5868,1041 5872,1013 5876,988 L 5876,987 C 5878,977 5879,967 5881,957 5823,986 5756,1000 5690,1000 5582,1000 5526,955 5510,857 L 5510,857 Z M 5510,756 L 5780,756 C 5780,666 5733,613 5651,613 5563,616 5518,664 5510,756 L 5510,756 Z M 6304,624 C 6309,600 6315,558 6315,521 6297,517 6272,516 6248,515 6235,514 6223,514 6211,513 6145,513 6058,526 6008,545 L 6008,1089 6127,1089 6127,624 C 6156,621 6185,619 6214,619 6246,619 6271,621 6298,623 L 6304,624 6304,624 Z"/>
       </g>
      </g>
     </g>
    </g>
   </g>
  </g>
 </g>
</svg>