<svg width="16" height="15" viewBox="0 0 16 15" fill="none" xmlns="http://www.w3.org/2000/svg">
<path fill-rule="evenodd" clip-rule="evenodd" d="M3.70086 1.70728C3.67951 0.738147 2.98648 0 1.86111 0C0.735732 0 0 0.738147 0 1.70728C0 2.65633 0.713986 3.41573 1.81841 3.41573H1.83943C2.98648 3.41573 3.70086 2.65633 3.70086 1.70728ZM3.4842 4.76483H0.194526V14.6489H3.4842V4.76483ZM11.5604 4.53273C13.7251 4.53273 15.348 5.94572 15.348 8.98169L15.3479 14.6489H12.0583V9.36093C12.0583 8.0327 11.5823 7.12635 10.3914 7.12635C9.48259 7.12635 8.94126 7.73736 8.7035 8.32751C8.61652 8.53901 8.59517 8.83369 8.59517 9.12909V14.6492H5.3051C5.3051 14.6492 5.34846 5.69256 5.3051 4.76509H8.59517V6.16509C9.03178 5.49208 9.81377 4.53273 11.5604 4.53273Z" fill="white"/>
</svg>
