<svg width="60" height="60" viewBox="0 0 60 60" fill="none" xmlns="http://www.w3.org/2000/svg">
<path fill-rule="evenodd" clip-rule="evenodd" d="M11.6659 14.4828H1.03448C0.463448 14.4828 0 14.0193 0 13.4483V1.03448C0 0.463448 0.463448 0 1.03448 0H25.8621C26.4331 0 26.8966 0.463448 26.8966 1.03448V13.4483C26.8966 14.0193 26.4331 14.4828 25.8621 14.4828H15.5172V16.7928L11.6659 14.4828ZM23.7931 7.24138C23.7931 6.10034 22.8652 5.17241 21.7241 5.17241C20.5831 5.17241 19.6552 6.10034 19.6552 7.24138C19.6552 8.38241 20.5831 9.31034 21.7241 9.31034C22.8652 9.31034 23.7931 8.38241 23.7931 7.24138ZM13.4483 5.17241C14.5893 5.17241 15.5172 6.10034 15.5172 7.24138C15.5172 8.38241 14.5893 9.31034 13.4483 9.31034C12.3072 9.31034 11.3793 8.38241 11.3793 7.24138C11.3793 6.10034 12.3072 5.17241 13.4483 5.17241ZM7.24138 7.24138C7.24138 6.10034 6.31345 5.17241 5.17241 5.17241C4.03138 5.17241 3.10345 6.10034 3.10345 7.24138C3.10345 8.38241 4.03138 9.31034 5.17241 9.31034C6.31345 9.31034 7.24138 8.38241 7.24138 7.24138ZM58.9655 8.27586H34.1379C33.5669 8.27586 33.1034 8.73931 33.1034 9.31034V23.7931C33.1034 24.3641 33.5669 24.8276 34.1379 24.8276H38.2759V28.3262L45.2731 24.8276H58.9655C59.5366 24.8276 60 24.3641 60 23.7931V9.31034C60 8.73931 59.5366 8.27586 58.9655 8.27586ZM55.8621 10.3448H57.931V22.7586H37.2414V20.6897H39.3103V16.5517H41.3793V20.6897H43.4483V14.4828H45.5172V20.6897H47.5862V10.3448H49.6552V20.6897H51.7241V12.4138H53.7931V20.6897H55.8621V10.3448ZM31.5559 38.6483C31.229 37.4307 30.749 36.269 30.1293 35.1962L29.8272 34.6717L31.6479 31.6034L28.3955 28.351L25.3272 30.1717L24.8028 29.8697C23.73 29.25 22.5683 28.771 21.3507 28.4431L20.7672 28.2859L19.8859 24.8276H15.2876L14.4052 28.2869L13.8217 28.4441C12.6041 28.771 11.4424 29.251 10.3697 29.8707L9.84517 30.1728L6.7769 28.3521L3.52448 31.6045L5.34517 34.6728L5.0431 35.1972C4.42345 36.27 3.94345 37.4317 3.61655 38.6493L3.45931 39.2328L0 40.1141V44.7124L3.45931 45.5948L3.61655 46.1783C3.94345 47.3959 4.42345 48.5576 5.0431 49.6303L5.34517 50.1548L3.52448 53.2231L6.7769 56.4755L9.84517 54.6548L10.3697 54.9569C11.4424 55.5766 12.6041 56.0555 13.8217 56.3834L14.4052 56.5407L15.2866 60H19.8848L20.7672 56.5407L21.3507 56.3834C22.5683 56.0566 23.73 55.5766 24.8028 54.9569L25.3272 54.6548L28.3955 56.4755L31.6479 53.2231L29.8272 50.1548L30.1293 49.6303C30.749 48.5576 31.2279 47.3959 31.5559 46.1783L31.7131 45.5948L35.1724 44.7134V40.1152L31.7131 39.2328L31.5559 38.6483ZM17.5862 54.8276C10.741 54.8276 5.17241 49.259 5.17241 42.4138C5.17241 35.5686 10.741 30 17.5862 30C24.4314 30 30 35.5686 30 42.4138C30 49.259 24.4314 54.8276 17.5862 54.8276ZM17.5862 32.069C11.8821 32.069 7.24138 36.7097 7.24138 42.4138C7.24138 48.1179 11.8821 52.7586 17.5862 52.7586C23.2903 52.7586 27.931 48.1179 27.931 42.4138C27.931 36.7097 23.2903 32.069 17.5862 32.069ZM17.5862 48.6207C14.1631 48.6207 11.3793 45.8369 11.3793 42.4138C11.3793 38.9907 14.1631 36.2069 17.5862 36.2069C21.0093 36.2069 23.7931 38.9907 23.7931 42.4138C23.7931 45.8369 21.0093 48.6207 17.5862 48.6207ZM21.7241 42.4138C21.7241 44.6991 19.8715 46.5517 17.5862 46.5517C15.3009 46.5517 13.4483 44.6991 13.4483 42.4138C13.4483 40.1285 15.3009 38.2759 17.5862 38.2759C19.8715 38.2759 21.7241 40.1285 21.7241 42.4138ZM45.721 42.8255C47.2169 41.879 48.9352 41.3793 50.6897 41.3793C55.8238 41.3793 60 45.5555 60 50.6897C60 52.9138 59.2138 54.9569 57.9083 56.5603C57.7924 55.0272 56.9017 53.6731 55.5093 52.9769L53.9441 52.1948C54.511 51.4707 54.8276 50.5759 54.8276 49.6552V47.5862C54.8276 46.4566 54.3579 45.3631 53.5386 44.5852C52.7069 43.7969 51.631 43.4121 50.4683 43.4534C48.2721 43.5683 46.5517 45.4614 46.5517 47.7621V49.6552C46.5517 50.5759 46.8683 51.4707 47.4362 52.1948L45.871 52.9769C44.4786 53.6731 43.5879 55.0272 43.4721 56.5603C42.1655 54.9569 41.3793 52.9138 41.3793 50.6897C41.3793 48.9352 41.879 47.2169 42.8255 45.72L43.1152 45.2617L41.9928 42.6155L45.4097 43.0221L45.721 42.8255ZM50.6897 60C52.9003 60 54.93 59.2221 56.5293 57.931H44.85C46.4493 59.2221 48.479 60 50.6897 60ZM45.7583 55.8621C45.9776 55.4224 46.3366 55.0572 46.7959 54.8276L49.6552 53.3979V51.4935L49.3138 51.1852C48.8669 50.7828 48.6207 50.2386 48.6207 49.6552V47.7621C48.6207 46.5817 49.499 45.5772 50.5769 45.5203C51.1438 45.4872 51.6983 45.69 52.1141 46.0862C52.529 46.4814 52.7586 47.0131 52.7586 47.5862V49.6552C52.7586 50.2386 52.5124 50.7828 52.0655 51.1852L51.7241 51.4935V53.3979L54.5824 54.8276C55.0428 55.0572 55.4007 55.4224 55.62 55.8621H45.7583Z" fill="#7C848D"/>
</svg>
