<svg width="60" height="60" viewBox="0 0 60 60" fill="none" xmlns="http://www.w3.org/2000/svg">
<path fill-rule="evenodd" clip-rule="evenodd" d="M43.9286 5.35714C43.9339 7.13015 45.3699 8.56613 47.1429 8.57143H52.5V32.1429H43.9286C42.1556 32.1482 40.7196 33.5841 40.7143 35.3571V51.4286H38.5714C38.5741 51.0065 38.3257 50.6233 37.9393 50.4536L28.2964 46.1679C28.1587 46.1043 28.0088 46.0714 27.8571 46.0714H16.0714V33.2893L16.47 30.4918C17.0756 30.3 17.6635 30.0562 18.2271 29.7632L20.5521 31.5096C20.977 31.8254 21.5688 31.7835 21.945 31.4111L24.9836 28.3725C25.356 27.9963 25.3979 27.4045 25.0821 26.9796L23.3357 24.6546C23.6287 24.091 23.8725 23.5031 24.0643 22.8975L26.9357 22.4904C27.4646 22.4156 27.8576 21.9627 27.8571 21.4286V17.1429C27.8571 16.6095 27.4648 16.1573 26.9368 16.0821L24.0643 15.675C23.8725 15.0694 23.6287 14.4815 23.3357 13.9179L25.0746 11.6057C25.3982 11.1756 25.3557 10.5729 24.975 10.1925L21.9536 7.17107C21.5731 6.79036 20.9705 6.74787 20.5404 7.07143L18.225 8.80714C17.6614 8.51412 17.0735 8.27036 16.4679 8.07857L16.0714 5.28214V4.28571C16.0714 1.91878 17.9902 0 20.3571 0H43.9286V5.35714ZM33.2143 12.8571H31.0714V15H33.2143V12.8571ZM35.3571 40.7143H20.3571V38.5714H35.3571V40.7143ZM20.3571 36.4286H35.3571V34.2857H20.3571V36.4286ZM48.2143 23.5714H31.0714V21.4286H48.2143V23.5714ZM31.0714 19.2857H48.2143V17.1429H31.0714V19.2857ZM48.2143 15H35.3571V12.8571H48.2143V15ZM50.985 6.42857H47.1429C46.5511 6.42857 46.0714 5.94888 46.0714 5.35714V1.515L50.985 6.42857ZM21.0921 9.3375L22.8064 11.0518L21.2079 13.1839C20.9473 13.5311 20.9219 14.0011 21.1436 14.3743C21.6112 15.1612 21.9631 16.0113 22.1882 16.8986C22.2954 17.3191 22.6457 17.6334 23.0754 17.6946L25.7143 18.0718V20.4996L23.0754 20.8821C22.6457 20.9433 22.2954 21.2577 22.1882 21.6782C21.9631 22.5655 21.6112 23.4156 21.1436 24.2025C20.9219 24.5757 20.9473 25.0457 21.2079 25.3929L22.8054 27.5207L21.0911 29.235L18.9589 27.6364C18.6118 27.3759 18.1418 27.3505 17.7686 27.5721C16.9817 28.0398 16.1315 28.3916 15.2443 28.6168C14.8237 28.724 14.5094 29.0743 14.4482 29.5039L14.0711 32.1429H11.6432L11.265 29.5029C11.2038 29.0732 10.8895 28.7229 10.4689 28.6157C9.58168 28.3906 8.73152 28.0387 7.94464 27.5711C7.57147 27.3494 7.10142 27.3748 6.75429 27.6354L4.62214 29.2339L2.90786 27.5196L4.50643 25.3875C4.76699 25.0404 4.79238 24.5703 4.57071 24.1971C4.10304 23.4103 3.75121 22.5601 3.52607 21.6729C3.41887 21.2523 3.06858 20.938 2.63893 20.8768L0 20.4996V18.0718L2.64 17.6936C3.06965 17.6324 3.41995 17.318 3.52714 16.8975C3.75228 16.0103 4.10411 15.1601 4.57179 14.3732C4.79345 14 4.76806 13.53 4.5075 13.1829L2.90893 11.0507L4.62321 9.33643L6.75536 10.935C7.10249 11.1956 7.57254 11.2209 7.94571 10.9993C8.73259 10.5316 9.58276 10.1798 10.47 9.95464C10.8905 9.84744 11.2049 9.49715 11.2661 9.0675L11.6432 6.42857H14.0711L14.4536 9.0675C14.5148 9.49715 14.8291 9.84744 15.2496 9.95464C16.1369 10.1798 16.9871 10.5316 17.7739 10.9993C18.1471 11.2209 18.6171 11.1956 18.9643 10.935L21.0921 9.3375ZM6.42857 19.2857C6.42857 22.8361 9.30674 25.7143 12.8571 25.7143C16.4061 25.7107 19.2822 22.8346 19.2857 19.2857C19.2857 15.7353 16.4075 12.8571 12.8571 12.8571C9.30674 12.8571 6.42857 15.7353 6.42857 19.2857ZM12.8571 23.5714C15.2241 23.5714 17.1429 21.6526 17.1429 19.2857C17.1429 16.9188 15.2241 15 12.8571 15C10.4902 15 8.57143 16.9188 8.57143 19.2857C8.57143 21.6526 10.4902 23.5714 12.8571 23.5714ZM42.8571 58.9286V35.3571C42.8571 34.7654 43.3368 34.2857 43.9286 34.2857H58.9286C59.5203 34.2857 60 34.7654 60 35.3571V58.9286C60 59.5203 59.5203 60 58.9286 60H43.9286C43.3368 60 42.8571 59.5203 42.8571 58.9286ZM46.0714 36.4286C45.4797 36.4286 45 36.9083 45 37.5V41.7857C45 42.3774 45.4797 42.8571 46.0714 42.8571H56.7857C57.3774 42.8571 57.8571 42.3774 57.8571 41.7857V37.5C57.8571 36.9083 57.3774 36.4286 56.7857 36.4286H46.0714ZM45 46.0714C45 45.4797 45.4797 45 46.0714 45H56.7857C57.3774 45 57.8571 45.4797 57.8571 46.0714V56.7857C57.8571 57.3774 57.3774 57.8571 56.7857 57.8571H46.0714C45.4797 57.8571 45 57.3774 45 56.7857V46.0714ZM28.9286 54.0654L31.0714 53.1129V49.7443L28.9286 48.7918V54.0654ZM34.8621 51.4286L33.2143 52.1604V50.6968L34.8621 51.4286ZM55.7143 38.5714H47.1429V40.7143H55.7143V38.5714ZM47.1429 47.1429H50.3571V50.3571H47.1429V47.1429ZM52.5 47.1429H55.7143V50.3571H52.5V47.1429ZM55.7143 52.5H52.5V55.7143H55.7143V52.5ZM47.1429 52.5H50.3571V55.7143H47.1429V52.5ZM26.7857 48.2143H10.7143V50.3571H26.7857V48.2143ZM6.42857 48.2143H8.57143V54.6429H6.42857V48.2143ZM26.7857 52.5H10.7143V54.6429H26.7857V52.5ZM3.21429 54.6429H4.28571V48.2143H3.21429C1.43908 48.2143 0 49.6534 0 51.4286C0 53.2038 1.43908 54.6429 3.21429 54.6429Z" fill="#7C848D"/>
</svg>
