<svg width="60" height="60" viewBox="0 0 60 60" fill="none" xmlns="http://www.w3.org/2000/svg">
<path fill-rule="evenodd" clip-rule="evenodd" d="M59.2768 48.8361H46.4781V56.5153H43.9184V0.0585938H15.7613V56.5153H13.2016V48.8361H0.402893L0.403302 59.075H59.2722L59.2768 48.8361ZM33.6794 23.2387H36.2392V25.7984H33.6794V23.2387ZM36.2392 28.3582H33.6794V30.9179H36.2392V28.3582ZM33.6794 33.4776H36.2392V36.0374H33.6794V33.4776ZM31.1197 23.2387H28.56V25.7984H31.1197V23.2387ZM28.56 28.3582H31.1197V30.9179H28.56V28.3582ZM31.1197 33.4776H28.56V36.0374H31.1197V33.4776ZM23.4405 23.2387H26.0002V25.7984H23.4405V23.2387ZM26.0002 28.3582H23.4405V30.9179H26.0002V28.3582ZM23.4405 33.4776H26.0002V36.0374H23.4405V33.4776ZM20.8808 23.2387H18.321V25.7984H20.8808V23.2387ZM18.321 28.3582H20.8808V30.9179H18.321V28.3582ZM20.8808 33.4776H18.321V36.0374H20.8808V33.4776ZM40.0788 42.4367V56.5153H37.519V42.4367C37.519 41.7302 36.9444 41.1568 36.2392 41.1568H31.1197V56.5153H28.56V41.1568H23.4405C22.7353 41.1568 22.1606 41.7302 22.1606 42.4367V56.5153H19.6009V42.4367C19.6009 40.3198 21.3236 38.5971 23.4405 38.5971H36.2392C38.3561 38.5971 40.0788 40.3198 40.0788 42.4367ZM38.7989 36.0374H41.3586V33.4776H38.7989V36.0374ZM41.3586 30.9179H38.7989V28.3582H41.3586V30.9179ZM38.7989 25.7984H41.3586V23.2387H38.7989V25.7984ZM33.6794 18.3112H36.2392V20.871H33.6794V18.3112ZM31.1197 18.3112H28.56V20.871H31.1197V18.3112ZM23.4405 18.3112H26.0002V20.871H23.4405V18.3112ZM20.8808 18.3112H18.321V20.871H20.8808V18.3112ZM41.3586 20.871H38.7989V18.3112H41.3586V20.871ZM36.2392 13.1918H33.6794V15.7515H36.2392V13.1918ZM28.56 13.1918H31.1197V15.7515H28.56V13.1918ZM26.0002 13.1918H23.4405V15.7515H26.0002V13.1918ZM18.321 13.1918H20.8808V15.7515H18.321V13.1918ZM38.7989 15.7515H41.3586V13.1918H38.7989V15.7515ZM33.6794 8.20028H36.2392V10.76H33.6794V8.20028ZM31.1197 8.20028H28.56V10.76H31.1197V8.20028ZM23.4405 8.20028H26.0002V10.76H23.4405V8.20028ZM20.8808 8.20028H18.321V10.76H20.8808V8.20028ZM41.3586 10.76H38.7989V8.20028H41.3586V10.76ZM36.2392 3.20879H33.6794V5.76853H36.2392V3.20879ZM28.56 3.20879H31.1197V5.76853H28.56V3.20879ZM26.0002 3.20879H23.4405V5.76853H26.0002V3.20879ZM18.321 3.20879H20.8808V5.76853H18.321V3.20879ZM38.7989 5.76853H41.3586V3.20879H38.7989V5.76853ZM59.2768 3.25826H46.4781V46.2763H59.2768V3.25826ZM51.5976 43.7166H49.0378V41.1569H51.5976V43.7166ZM49.0378 38.5971H51.5976V36.0374H49.0378V38.5971ZM51.5976 33.4776H49.0378V30.9179H51.5976V33.4776ZM49.0378 28.3582H51.5976V25.7984H49.0378V28.3582ZM56.717 43.7166H54.1573V41.1569H56.717V43.7166ZM54.1573 38.5971H56.717V36.0374H54.1573V38.5971ZM56.717 33.4776H54.1573V30.9179H56.717V33.4776ZM54.1573 28.3582H56.717V25.7984H54.1573V28.3582ZM51.5976 23.4307H49.0378V20.871H51.5976V23.4307ZM54.1573 23.4307H56.717V20.871H54.1573V23.4307ZM51.5976 18.3112H49.0378V15.7515H51.5976V18.3112ZM54.1573 18.3112H56.717V15.7515H54.1573V18.3112ZM51.5976 13.4477H49.0378V10.888H51.5976V13.4477ZM54.1573 13.4477H56.717V10.888H54.1573V13.4477ZM51.5976 8.32826H49.0378V5.76853H51.5976V8.32826ZM54.1573 8.32826H56.717V5.76853H54.1573V8.32826ZM13.2016 46.2763H0.402893V3.25826H13.2016V46.2763ZM10.6418 25.7984H8.08209V28.3582H10.6418V25.7984ZM8.08209 30.9179H10.6418V33.4776H8.08209V30.9179ZM10.6418 36.0374H8.08209V38.5971H10.6418V36.0374ZM8.08209 41.1569H10.6418V43.7166H8.08209V41.1569ZM5.52236 25.7984H2.96263V28.3582H5.52236V25.7984ZM8.08209 20.679H10.6418V23.2387H8.08209V20.679ZM5.52236 20.679H2.96263V23.2387H5.52236V20.679ZM8.08209 15.5595H10.6418V18.1192H8.08209V15.5595ZM5.52236 15.5595H2.96263V18.1192H5.52236V15.5595ZM8.08209 10.568H10.6418V13.1278H8.08209V10.568ZM5.52236 10.568H2.96263V13.1278H5.52236V10.568ZM8.08209 5.57655H10.6418V8.13628H8.08209V5.57655ZM5.52236 5.57655H2.96263V8.13628H5.52236V5.57655ZM2.96263 30.9179H5.52236V33.4776H2.96263V30.9179ZM5.52236 36.0374H2.96263V38.5971H5.52236V36.0374ZM2.96263 41.1569H5.52236V43.7166H2.96263V41.1569Z" fill="#7C848D"/>
</svg>