<svg width="22" height="15" viewBox="0 0 22 15" fill="none" xmlns="http://www.w3.org/2000/svg">
<path fill-rule="evenodd" clip-rule="evenodd" d="M21.4175 3.23558C21.4175 3.23558 21.2133 1.76604 20.5879 1.1189C19.7942 0.269169 18.9046 0.26517 18.497 0.215852C15.5766 -8.0787e-05 11.1959 -8.0787e-05 11.1959 -8.0787e-05H11.1868C11.1868 -8.0787e-05 6.80616 -8.0787e-05 3.88572 0.215852C3.47746 0.26517 2.58855 0.269169 1.7942 1.1189C1.16877 1.76604 0.965287 3.23558 0.965287 3.23558C0.965287 3.23558 0.756592 4.96171 0.756592 6.68717V8.30534C0.756592 10.0315 0.965287 11.7569 0.965287 11.7569C0.965287 11.7569 1.16877 13.2265 1.7942 13.8736C2.58855 14.7233 3.63137 14.6967 4.09572 14.7853C5.76529 14.9493 11.1914 14.9999 11.1914 14.9999C11.1914 14.9999 15.5766 14.9933 18.497 14.7773C18.9046 14.7273 19.7942 14.7233 20.5879 13.8736C21.2133 13.2265 21.4175 11.7569 21.4175 11.7569C21.4175 11.7569 21.6262 10.0315 21.6262 8.30534V6.68717C21.6262 4.96171 21.4175 3.23558 21.4175 3.23558ZM9.03659 10.2661L9.03594 4.27392L14.6746 7.28032L9.03659 10.2661Z" fill="white"/>
</svg>
